<?xml version="1.0" encoding="UTF-8"?>
<!DOCTYPE svg PUBLIC "-//W3C//DTD SVG 1.1//EN" "http://www.w3.org/Graphics/SVG/1.1/DTD/svg11.dtd">
<!-- Creator: CorelDRAW -->
<svg xmlns="http://www.w3.org/2000/svg" xml:space="preserve" width="134.78mm" height="31.9649mm" version="1.1" style="shape-rendering:geometricPrecision; text-rendering:geometricPrecision; image-rendering:optimizeQuality; fill-rule:evenodd; clip-rule:evenodd"
viewBox="0 0 2896.69 686.99"
 xmlns:xlink="http://www.w3.org/1999/xlink"
 xmlns:xodm="http://www.corel.com/coreldraw/odm/2003">
 <defs>
  <style type="text/css">
   <![CDATA[
    .str1 {stroke:#2B2A29;stroke-width:2.15;stroke-miterlimit:22.9256}
    .str0 {stroke:#2B2A29;stroke-width:1.64;stroke-miterlimit:22.9256}
    .fil1 {fill:none}
    .fil5 {fill:#2B2A29}
    .fil0 {fill:#1F1D1D}
    .fil4 {fill:#4C4B4C}
    .fil3 {fill:#747274}
    .fil2 {fill:#FDFEFE}
    .fil6 {fill:#2B2A29;fill-rule:nonzero}
   ]]>
  </style>
 </defs>
 <g id="Layer_x0020_1">
  <metadata id="CorelCorpID_0Corel-Layer"/>
  <path class="fil0 str0" d="M1331.55 286.93c3.81,4.28 1.82,1.07 -0.11,3.39l-35 -12.89c-12.33,-2.96 -22.57,-6.09 -35.96,-8.53 -76.64,-15.08 -165.19,-7.76 -241.66,23.77 -65.27,26.69 -108.72,54.27 -165.48,94.1 -126.86,89.12 -328.18,257.44 -469.06,290.23 -83.26,19.23 -164.68,11.45 -214.88,-53.87 -14.35,-18.94 -40.59,-64.39 -41.48,-86.2 18.52,33.05 24.87,48.06 52.1,71.08 20.89,18.01 42.66,26.99 64.33,32.12 51.78,11.48 100.44,1.96 159,-22.34 31.69,-13.03 57.59,-29.94 85.88,-45.5 22.38,-12.44 54.57,-33.49 75.79,-49.26 11.32,-8.23 24.73,-16.63 36.86,-24.97l109.19 -75.06c50.6,-36.3 102.25,-65.89 154.89,-97.06 107.86,-63.31 246.41,-106.37 365.96,-78.31l18.08 4.92c10.7,3.19 23.25,6.6 33.67,11.03 5.5,2.36 10.32,4.21 16.39,6.84 5.14,2.53 28.36,13.59 31.51,16.51z"/>
  <path class="fil0 str0" d="M624.56 330.45c17.3,118.22 -59.37,86.7 -87.69,95.42 -33.42,10.42 -64.88,39.69 -81.79,29.84 -42.86,-24.21 -2.36,-117.38 8.65,-168.33 9.83,-45.04 11.8,-72.91 0.79,-115.41l-3.54 -1.69 0.79 6.47c-1.18,8.73 0.39,28.43 0,39.13 -0.79,36.03 -12.58,61.08 -25.56,89.79 -20.45,43.63 -44.04,92.61 -32.24,145.81 4.72,20.83 13.37,36.03 31.06,43.63 33.03,13.51 72.35,-22.8 96.73,-36.03 73.92,-39.97 162.4,15.2 123.47,-113.72 -6.68,-22.24 -94.37,-204.08 -117.96,-209.14 46,69.25 66.84,117.66 87.29,194.23z"/>
  <path class="fil0 str0" d="M61.09 343.68c9.83,-5.63 19.27,-1.69 21.63,-15.76 1.18,-7.6 0.78,-10.7 5.5,-14.08 14.55,-9.85 20.05,14.92 3.15,28.15 -3.93,3.09 -7.87,4.22 -13.37,4.5 -5.11,0.28 -12.97,0.84 -16.91,-2.82zm-24.38 -7.32c-20.05,-5.35 -21.63,-30.96 -13.37,-36.03 9.83,-6.48 10.22,6.75 7.87,13.79 -5.11,14.36 1.96,13.23 5.5,22.24zm7.86 23.36c8.65,1.13 11.4,3.38 20.84,3.66 47.97,1.69 54.65,-50.39 46.4,-70.37 -14.55,-35.18 -73.92,-38.84 -92.4,-5.91 -7.86,14.64 -2.75,26.74 -2.75,33.22 0,5.07 -0.79,6.75 0,12.38 1.97,14.92 12.19,19.42 22.81,25.33l-1.97 30.96c3.54,-7.6 5.5,-20.27 7.08,-29.27z"/>
  <path class="fil0 str0" d="M116.54 134.25c-1.57,8.44 -2.36,3.38 1.57,5.07l34.21 -42.5c6.29,-6.19 12.19,-12.39 19.66,-19.14 36.96,-33.5 81.79,-52.08 133.3,-57.14 72.74,-7.04 139.98,21.67 193.46,70.37 3.54,3.09 18.87,17.17 20.05,17.45l0 -1.13c-2.75,-13.51 -65.66,-63.05 -86.9,-74.59 -37.75,-20.27 -77.07,-34.06 -126.22,-31.52 -62.13,2.81 -121.5,34.06 -157.28,82.19 -7.08,9.57 -28.7,37.16 -31.85,50.95z"/>
  <path class="fil0 str0" d="M70.2 435.43c6.79,9 20.16,15.14 30.19,20.98 3.3,1.76 -0.07,-0.27 2.85,1.59 3.82,2.21 7.88,3.78 11.63,5.72 43.7,19.82 86.63,-5.81 126.86,-21.43 34.97,-13.98 57.08,-13.29 63.41,-15.51l1.88 -6.88c-17.25,-32.18 -83.14,36.59 -129.16,42.38 -31.89,3.88 -55.86,-2.44 -83.77,-16.16 -4.2,-2.11 -7.64,-4.42 -11.46,-6.63 -3.23,-1.49 -3.23,-1.49 -6.22,-3.63 -2.99,-2.13 -1.78,-2.16 -4.96,-1.92l-3.02 -0.67 1.78 2.16z"/>
  <g>
   <path class="fil0" d="M278.54 229.39c-10.62,-0.28 -14.16,-8.16 -18.48,-15.76 4.32,0.84 3.15,4.22 8.26,7.6 13.37,8.73 26.74,0 35.78,-1.97l-25.56 10.13zm-34.6 -17.17c6.29,0.56 6.68,-3.1 9.83,2.81 1.96,3.94 1.18,5.91 3.93,10.42 16.91,28.71 52.69,0.84 61.73,-2.82 5.11,2.82 7.86,7.32 13.76,8.73 -1.57,-5.35 -14.15,-24.77 -16.91,-28.71 -45.61,-58.83 -64.88,0.84 -72.35,9.57z"/>
   <path id="_1" class="fil1 str0" d="M278.54 229.39c-10.62,-0.28 -14.16,-8.16 -18.48,-15.76 4.32,0.84 3.15,4.22 8.26,7.6 13.37,8.73 26.74,0 35.78,-1.97m-60.16 -7.04c6.29,0.56 6.68,-3.1 9.83,2.81 1.96,3.94 1.18,5.91 3.93,10.42 16.91,28.71 52.69,0.84 61.73,-2.82 5.11,2.82 7.86,7.32 13.76,8.73 -1.57,-5.35 -14.15,-24.77 -16.91,-28.71 -45.61,-58.83 -64.88,0.84 -72.35,9.57z"/>
  </g>
  <path class="fil0 str0" d="M146.42 540.72c14.16,18.86 42.86,34.9 73.53,40.53 33.42,6.47 65.66,-1.41 93.98,-11.82 1.18,-3.94 1.57,-1.13 0,-3.38 -5.51,1.97 -3.54,2.25 -9.04,1.13 -14.94,-2.25 -43.65,6.75 -87.29,-1.13 -42.47,-7.32 -60.16,-26.74 -67.63,-27.87l-4.72 -1.97 1.18 4.5z"/>
  <path class="fil0 str0" d="M37.11 464.15c3.93,15.2 25.95,36.03 40.89,42.5 17.69,7.88 51.12,5.91 65.27,-5.63 -26.74,2.25 -42.86,2.81 -69.99,-9.57 -7.86,-3.66 -12.98,-7.32 -20.05,-12.67 -9.83,-7.6 -8.26,-9.85 -16.12,-14.64z"/>
  <path class="fil0 str0" d="M113.78 197.02l-0.79 3.94 3.15 -1.97c3.54,-0.84 6.29,-7.6 8.26,-10.7 2.75,-4.79 4.72,-8.73 6.68,-13.79 8.65,-21.39 1.57,-25.9 0,-30.68 -13.76,-0.56 -14.55,9.57 -21.63,15.48l3.93 2.82c-1.18,15.2 2.36,20.26 0.39,34.9z"/>
  <path class="fil0 str0" d="M6.83 426.43c3.93,10.13 15.73,27.02 24.38,28.99 -6.29,-30.68 -5.11,-28.71 2.36,-50.39 -1.97,-2.25 -13.76,16.89 -12.19,28.99 -20.84,-10.7 -14.94,-68.68 -13.76,-86.42 -5.9,26.46 -11.4,51.79 -0.79,78.82z"/>
  <path class="fil2 str0" d="M61.09 343.68c3.93,3.66 11.8,3.1 16.91,2.82 5.5,-0.28 9.44,-1.41 13.37,-4.5 16.91,-13.23 11.4,-38 -3.15,-28.15 -4.72,3.38 -4.33,6.48 -5.5,14.08 -2.36,14.08 -11.8,10.13 -21.63,15.76z"/>
  <path class="fil2 str0" d="M36.71 336.36c-3.54,-9.01 -10.62,-7.88 -5.5,-22.24 2.36,-7.04 1.96,-20.27 -7.87,-13.79 -8.26,5.07 -6.68,30.68 13.37,36.03z"/>
  <path class="fil3 str0" d="M90.58 228.83c-3.93,0.56 -3.15,1.41 -2.36,-3.1l-21.63 17.45c-7.08,5.35 -14.94,11.82 -21.23,16.89 7.08,-3.1 16.91,-9.57 23.59,-13.79 8.65,-5.63 15.33,-10.13 21.63,-17.45z"/>
  <path class="fil2 str0" d="M304.1 219.26c-37.75,9.29 -30.28,-3.94 -44.04,-5.63 4.32,7.6 7.86,15.48 18.48,15.76 10.62,0.28 20.45,-4.5 25.56,-10.13z"/>
  <path class="fil4 str0" d="M96.88 218.98c3.93,-4.5 1.57,-2.82 2.36,0 6.68,-3.94 13.76,-11.82 16.91,-19.99l-3.15 1.97 0.79 -3.94 -5.5 5.63c-1.57,2.25 -1.97,3.1 -3.54,5.35 -3.15,4.78 -4.72,5.91 -7.86,10.98z"/>
  <path class="fil4 str0" d="M146.42 540.72l-1.18 -4.5 4.72 1.97c-2.36,-4.5 -14.94,-16.04 -19.27,-18.58 2.36,7.32 10.62,18.3 15.73,21.11z"/>
  <path class="fil4 str0" d="M66.6 430.66l-1.18 -2.53 2.75 1.41c-3.54,-6.48 -14.55,-20.83 -21.23,-25.62 5.11,8.45 11.4,21.67 19.66,26.74z"/>
  <path class="fil2 str0" d="M295.44 200.4c-3.54,7.88 6.29,11.54 9.83,7.6 7.47,-7.88 -5.9,-15.2 -9.83,-7.6z"/>
  <path class="fil4 str0" d="M118.11 139.32c-3.93,-1.69 -3.14,3.38 -1.57,-5.07 -4.72,3.94 -9.44,14.64 -9.44,21.11 1.57,-2.25 3.54,-4.22 5.11,-6.75l5.9 -9.29z"/>
  <path class="fil4 str0" d="M549.46 150.3l-0.79 -3.38 2.75 1.41c-2.75,-7.04 -10.22,-12.95 -16.91,-13.23l14.94 15.2z"/>
  <path class="fil4 str0" d="M461.77 176.75l-0.79 -6.47 3.54 1.69c-1.18,-7.32 -2.75,-10.13 -7.08,-13.23 0.39,4.5 0.79,5.35 1.57,9.57 0,2.25 0,3.38 0.79,5.35 1.18,3.94 0.39,1.41 1.97,3.1z"/>
  <path class="fil0 str0" d="M88.22 225.73c-0.79,4.5 -1.57,3.66 2.36,3.1 4.72,-3.94 5.11,-5.63 8.65,-9.85 -0.79,-2.82 1.57,-4.5 -2.36,0l-8.65 6.75z"/>
  <path class="fil4 str0" d="M304.88 567.18c5.5,1.13 3.54,0.84 9.04,-1.13 1.57,2.25 1.18,-0.56 0,3.38l16.12 -6.48 -25.17 4.22z"/>
  <path class="fil3 str0" d="M518.79 108.35c1.97,5.63 3.15,6.47 7.47,7.32 -3.15,-4.78 -1.18,-5.07 -7.47,-8.44l0 1.13z"/>
  <path class="fil5 str1" d="M110.68 381.33c11.98,-0.06 62.45,2.93 72.42,-0.53 1.36,-0.47 2.04,8.89 -0.68,8.7 -6.61,-0.45 -70.67,-6.02 -71.74,-8.17z"/>
  <path class="fil5 str1" d="M111.65 394.83c11.9,1.39 61.64,10.48 71.95,8.25 1.41,-0.3 0.95,9.07 -1.73,8.56 -6.51,-1.25 -69.42,-14.54 -70.22,-16.8z"/>
  <path class="fil5 str1" d="M104.9 407.28c11.5,3.35 59.04,20.58 69.58,20.1 1.44,-0.07 -0.57,9.1 -3.13,8.15 -6.21,-2.31 -66.04,-25.87 -66.45,-28.24z"/>
  <path class="fil6" d="M742.69 515.27l59.87 78.58 44.33 -33.77c3.52,-2.68 6.88,-3.89 10.07,-3.62 3.23,0.28 5.81,1.73 7.78,4.32 2.01,2.64 2.73,5.51 2.11,8.56 -0.61,3.05 -2.72,5.97 -6.29,8.69l-52.8 40.22c-4.75,3.62 -8.97,5.17 -12.66,4.64 -3.69,-0.52 -7.35,-3.14 -10.93,-7.84l-63.33 -83.13c-3.35,-4.4 -4.87,-8.48 -4.57,-12.2 0.3,-3.72 2.07,-6.82 5.31,-9.29 3.27,-2.49 6.75,-3.44 10.45,-2.8 3.7,0.63 7.28,3.19 10.67,7.64zm201.37 -19.67l-15.33 -9.84 -44.34 32.8 5.13 17.82c2.01,6.96 3,11.92 2.96,14.9 -0.01,2.96 -1.66,5.67 -4.94,8.09 -2.77,2.05 -5.98,2.85 -9.62,2.4 -3.63,-0.45 -6.41,-1.98 -8.31,-4.54 -1.11,-1.5 -2,-3.23 -2.68,-5.17 -0.68,-1.98 -1.48,-4.76 -2.44,-8.45l-24.49 -91.44c-0.69,-2.63 -1.55,-5.77 -2.54,-9.44 -1.01,-3.7 -1.56,-6.94 -1.68,-9.76 -0.12,-2.82 0.4,-5.57 1.6,-8.26 1.19,-2.69 3.3,-5.15 6.32,-7.39 3.1,-2.29 6.1,-3.61 9.02,-3.96 2.92,-0.35 5.68,-0.08 8.3,0.81 2.62,0.89 5.15,2.08 7.58,3.55 2.42,1.47 5.62,3.46 9.54,5.99l80.56 49.29c6.2,3.71 10.19,6.77 11.99,9.2 1.86,2.51 2.55,5.62 2,9.29 -0.55,3.67 -2.34,6.6 -5.31,8.8 -1.73,1.28 -3.45,2.08 -5.16,2.37 -1.67,0.29 -3.33,0.23 -4.98,-0.2 -1.63,-0.45 -3.74,-1.44 -6.32,-2.91 -2.62,-1.48 -4.88,-2.83 -6.83,-3.98zm-66.15 2.05l32.59 -24.11 -49.69 -32.8 17.1 56.9zm170.66 -39.09l-38.29 15.95c-5.54,2.31 -9.99,2.73 -13.38,1.23 -3.39,-1.49 -6.24,-4.96 -8.49,-10.36l-39.25 -94.19c-2.3,-5.51 -2.73,-9.99 -1.31,-13.42 1.41,-3.43 4.81,-6.28 10.23,-8.54l40.59 -16.91c5.98,-2.49 11.33,-4.28 16.01,-5.37 4.72,-1.08 9.24,-1.32 13.6,-0.64 3.7,0.51 7.23,1.67 10.67,3.43 3.4,1.76 6.36,4.02 8.92,6.79 2.57,2.8 4.61,5.98 6.13,9.63 5.22,12.54 2.78,24.34 -7.34,35.37 18.66,-1.62 31.13,5.13 37.45,20.3 2.92,7 3.75,14.08 2.49,21.17 -1.24,7.12 -4.35,13.28 -9.34,18.47 -3.15,3.2 -7.05,6.16 -11.74,8.86 -4.68,2.74 -10.35,5.48 -16.94,8.22zm-25.08 -54.85l-26.42 11.01 15.24 36.57 27.26 -11.36c17.17,-7.16 23.17,-16.91 18.02,-29.28 -2.64,-6.33 -6.76,-9.98 -12.41,-10.98 -5.61,-0.98 -12.86,0.36 -21.69,4.04zm-47.49 -39.55l13.49 32.37 23.27 -9.7c6.33,-2.64 10.94,-5.28 13.89,-7.91 2.97,-2.64 4.65,-6.01 5.09,-10.13 0.43,-2.99 0.02,-5.96 -1.21,-8.91 -2.64,-6.33 -6.63,-9.59 -12.02,-9.78 -5.35,-0.2 -12.67,1.62 -21.89,5.46l-20.62 8.59zm204.97 65.55l-41.46 1.15c-6,0.17 -10.3,-1.04 -12.93,-3.66 -2.63,-2.61 -4.05,-6.87 -4.21,-12.71l-2.83 -102c-0.17,-5.97 1.04,-10.3 3.59,-13 2.55,-2.69 6.74,-4.14 12.62,-4.3l43.96 -1.22c6.47,-0.18 12.11,0.08 16.87,0.73 4.79,0.69 9.09,2.08 12.92,4.29 3.27,1.81 6.15,4.16 8.73,7.03 2.54,2.87 4.5,6.04 5.89,9.54 1.39,3.53 2.16,7.24 2.27,11.19 0.38,13.58 -6.14,23.71 -19.54,30.37 18,5.19 27.21,15.96 27.67,32.38 0.21,7.58 -1.56,14.49 -5.27,20.66 -3.71,6.2 -8.83,10.83 -15.35,13.89 -4.09,1.85 -8.79,3.22 -14.14,4.06 -5.35,0.88 -11.62,1.4 -18.76,1.6zm-3.73 -60.2l-28.61 0.8 1.1 39.6 29.53 -0.82c18.6,-0.52 27.7,-7.47 27.33,-20.86 -0.19,-6.85 -2.73,-11.74 -7.65,-14.7 -4.88,-2.93 -12.13,-4.28 -21.7,-4.01zm-30.13 -53.96l0.97 35.05 25.2 -0.7c6.85,-0.19 12.11,-1 15.8,-2.4 3.72,-1.4 6.5,-3.94 8.38,-7.63 1.48,-2.63 2.15,-5.56 2.07,-8.75 -0.19,-6.85 -2.75,-11.33 -7.7,-13.44 -4.93,-2.11 -12.41,-3.04 -22.39,-2.76l-22.33 0.62zm115.82 102.53l18.78 -105.21c0.98,-5.47 2.95,-9.32 5.93,-11.62 2.98,-2.29 6.46,-3.08 10.41,-2.38 4.04,0.72 7.1,2.65 9.14,5.8 2.04,3.16 2.58,7.49 1.59,13.02l-18.78 105.21c-0.99,5.53 -3,9.41 -6,11.7 -3.01,2.29 -6.55,3.06 -10.59,2.34 -3.89,-0.69 -6.85,-2.63 -8.87,-5.85 -2.02,-3.22 -2.57,-7.55 -1.59,-13.02z"/>
  <path class="fil6" d="M684.71 167.96c-3.82,0 -7.11,-1.23 -9.89,-3.69 -2.78,-2.47 -4.17,-5.94 -4.17,-10.36 0,-3.79 1.33,-7.01 3.98,-9.73 2.65,-2.72 5.94,-4.07 9.83,-4.07 3.89,0 7.2,1.33 9.95,4.01 2.75,2.68 4.11,5.94 4.11,9.79 0,4.36 -1.36,7.8 -4.11,10.3 -2.75,2.5 -5.97,3.76 -9.7,3.76zm59.33 0c-3.82,0 -7.11,-1.23 -9.89,-3.69 -2.78,-2.47 -4.17,-5.94 -4.17,-10.36 0,-3.79 1.33,-7.01 3.98,-9.73 2.65,-2.72 5.94,-4.07 9.83,-4.07 3.89,0 7.2,1.33 9.95,4.01 2.75,2.68 4.11,5.94 4.11,9.79 0,4.36 -1.36,7.8 -4.11,10.3 -2.75,2.5 -5.97,3.76 -9.7,3.76zm59.33 0c-3.82,0 -7.11,-1.23 -9.89,-3.69 -2.78,-2.47 -4.17,-5.94 -4.17,-10.36 0,-3.79 1.33,-7.01 3.98,-9.73 2.65,-2.72 5.94,-4.07 9.83,-4.07 3.89,0 7.2,1.33 9.95,4.01 2.75,2.68 4.11,5.94 4.11,9.79 0,4.36 -1.36,7.8 -4.11,10.3 -2.75,2.5 -5.97,3.76 -9.7,3.76zm90 -15.35l0 -109.56c0,-5.05 1.14,-8.88 3.38,-11.47 2.24,-2.59 5.28,-3.89 9.1,-3.89 3.79,0 6.89,1.29 9.23,3.85 2.34,2.56 3.51,6.38 3.51,11.5l0 109.56c0,5.12 -1.2,8.94 -3.57,11.5 -2.37,2.56 -5.43,3.85 -9.16,3.85 -3.69,0 -6.7,-1.33 -9,-3.98 -2.31,-2.65 -3.48,-6.44 -3.48,-11.37zm76.58 -73.04l0 73.04c0,5.05 -1.2,8.88 -3.6,11.47 -2.4,2.59 -5.44,3.89 -9.13,3.89 -3.69,0 -6.7,-1.33 -9,-3.98 -2.31,-2.65 -3.48,-6.44 -3.48,-11.37l0 -72.28c0,-5.02 1.17,-8.78 3.48,-11.31 2.31,-2.53 5.31,-3.79 9,-3.79 3.7,0 6.73,1.26 9.13,3.79 2.4,2.53 3.6,6.07 3.6,10.55zm-12.48 -26.1c-3.51,0 -6.51,-1.07 -9,-3.22 -2.5,-2.15 -3.73,-5.21 -3.73,-9.16 0,-3.54 1.26,-6.48 3.82,-8.78 2.56,-2.31 5.53,-3.48 8.91,-3.48 3.29,0 6.16,1.04 8.69,3.13 2.53,2.12 3.79,5.15 3.79,9.13 0,3.89 -1.23,6.92 -3.7,9.1 -2.46,2.18 -5.37,3.29 -8.78,3.29zm109.12 69.37l-49.44 0c0.06,5.75 1.23,10.8 3.48,15.19 2.24,4.39 5.24,7.68 8.97,9.89 3.73,2.24 7.87,3.35 12.35,3.35 3.03,0 5.78,-0.35 8.28,-1.07 2.53,-0.69 4.93,-1.8 7.27,-3.32 2.37,-1.52 4.52,-3.13 6.48,-4.87 1.99,-1.74 4.55,-4.07 7.71,-7.04 1.3,-1.11 3.13,-1.67 5.53,-1.67 2.59,0 4.71,0.73 6.32,2.15 1.58,1.39 2.4,3.41 2.4,6 0,2.27 -0.92,4.93 -2.69,7.99 -1.8,3.03 -4.49,5.97 -8.12,8.75 -3.6,2.81 -8.12,5.15 -13.59,6.98 -5.47,1.86 -11.75,2.78 -18.83,2.78 -16.24,0 -28.84,-4.64 -37.85,-13.9 -9,-9.26 -13.49,-21.8 -13.49,-37.66 0,-7.46 1.1,-14.41 3.32,-20.79 2.21,-6.38 5.47,-11.85 9.7,-16.43 4.26,-4.55 9.51,-8.06 15.73,-10.49 6.22,-2.43 13.14,-3.66 20.72,-3.66 9.89,0 18.35,2.08 25.4,6.25 7.08,4.17 12.35,9.54 15.89,16.17 3.51,6.6 5.27,13.33 5.27,20.19 0,6.35 -1.83,10.49 -5.46,12.38 -3.63,1.86 -8.75,2.81 -15.35,2.81zm-49.44 -14.41l45.81 0c-0.6,-8.62 -2.94,-15.07 -6.98,-19.36 -4.04,-4.26 -9.35,-6.41 -15.95,-6.41 -6.32,0 -11.47,2.18 -15.51,6.51 -4.04,4.36 -6.51,10.77 -7.36,19.27zm112.4 -66.31l0 38.6c4.74,-4.96 9.6,-8.75 14.53,-11.37 4.93,-2.62 11.06,-3.95 18.32,-3.95 8.4,0 15.76,1.99 22.08,5.97 6.32,3.98 11.21,9.76 14.69,17.31 3.51,7.55 5.24,16.52 5.24,26.88 0,7.65 -0.98,14.66 -2.91,21.04 -1.96,6.38 -4.77,11.94 -8.47,16.62 -3.7,4.71 -8.21,8.31 -13.49,10.87 -5.28,2.56 -11.09,3.85 -17.44,3.85 -3.89,0 -7.55,-0.47 -10.96,-1.39 -3.41,-0.92 -6.35,-2.15 -8.75,-3.67 -2.4,-1.48 -4.46,-3.06 -6.16,-4.67 -1.67,-1.58 -3.92,-3.98 -6.7,-7.2l0 2.5c0,4.74 -1.14,8.34 -3.41,10.77 -2.31,2.43 -5.21,3.66 -8.72,3.66 -3.57,0 -6.41,-1.23 -8.56,-3.66 -2.11,-2.43 -3.19,-6.03 -3.19,-10.77l0 -110.28c0,-5.12 1.04,-9.01 3.09,-11.63 2.08,-2.62 4.96,-3.92 8.66,-3.92 3.89,0 6.89,1.26 8.97,3.76 2.12,2.5 3.16,6.07 3.16,10.68zm1.2 75.06c0,10.05 2.31,17.75 6.89,23.16 4.61,5.4 10.61,8.09 18.07,8.09 6.35,0 11.85,-2.75 16.43,-8.28 4.58,-5.53 6.89,-13.43 6.89,-23.73 0,-6.63 -0.95,-12.38 -2.88,-17.19 -1.9,-4.8 -4.61,-8.53 -8.12,-11.15 -3.54,-2.62 -7.61,-3.92 -12.32,-3.92 -4.8,0 -9.07,1.29 -12.83,3.92 -3.76,2.62 -6.73,6.41 -8.88,11.37 -2.18,4.96 -3.25,10.87 -3.25,17.72zm164.43 5.65l-49.44 0c0.06,5.75 1.23,10.8 3.48,15.19 2.24,4.39 5.24,7.68 8.97,9.89 3.73,2.24 7.87,3.35 12.35,3.35 3.03,0 5.78,-0.35 8.28,-1.07 2.53,-0.69 4.93,-1.8 7.27,-3.32 2.37,-1.52 4.52,-3.13 6.48,-4.87 1.99,-1.74 4.55,-4.07 7.71,-7.04 1.3,-1.11 3.13,-1.67 5.53,-1.67 2.59,0 4.71,0.73 6.32,2.15 1.58,1.39 2.4,3.41 2.4,6 0,2.27 -0.92,4.93 -2.69,7.99 -1.8,3.03 -4.49,5.97 -8.12,8.75 -3.6,2.81 -8.12,5.15 -13.59,6.98 -5.47,1.86 -11.75,2.78 -18.83,2.78 -16.24,0 -28.84,-4.64 -37.85,-13.9 -9,-9.26 -13.49,-21.8 -13.49,-37.66 0,-7.46 1.1,-14.41 3.32,-20.79 2.21,-6.38 5.47,-11.85 9.7,-16.43 4.26,-4.55 9.51,-8.06 15.73,-10.49 6.22,-2.43 13.14,-3.66 20.72,-3.66 9.89,0 18.35,2.08 25.4,6.25 7.08,4.17 12.35,9.54 15.89,16.17 3.51,6.6 5.27,13.33 5.27,20.19 0,6.35 -1.83,10.49 -5.46,12.38 -3.63,1.86 -8.75,2.81 -15.35,2.81zm-49.44 -14.41l45.81 0c-0.6,-8.62 -2.94,-15.07 -6.98,-19.36 -4.04,-4.26 -9.35,-6.41 -15.95,-6.41 -6.32,0 -11.47,2.18 -15.51,6.51 -4.04,4.36 -6.51,10.77 -7.36,19.27zm104.72 -27.48l20.44 57.43 22.02 -59.93c1.74,-4.8 3.41,-8.21 5.09,-10.23 1.67,-1.99 4.2,-3 7.58,-3 3.22,0 5.94,1.07 8.18,3.25 2.24,2.15 3.38,4.64 3.38,7.49 0,1.1 -0.19,2.4 -0.6,3.89 -0.41,1.49 -0.85,2.87 -1.39,4.17 -0.54,1.3 -1.14,2.78 -1.8,4.42l-24.23 60.18c-0.69,1.7 -1.55,3.92 -2.65,6.57 -1.07,2.65 -2.27,4.9 -3.6,6.79 -1.33,1.9 -2.97,3.35 -4.9,4.39 -1.96,1.04 -4.3,1.58 -7.08,1.58 -3.57,0 -6.41,-0.82 -8.56,-2.46 -2.12,-1.61 -3.7,-3.41 -4.71,-5.37 -1.01,-1.93 -2.75,-5.78 -5.15,-11.5l-24.04 -59.52c-0.57,-1.49 -1.14,-2.97 -1.71,-4.46 -0.6,-1.49 -1.07,-2.97 -1.48,-4.52 -0.41,-1.55 -0.6,-2.88 -0.6,-3.98 0,-1.74 0.54,-3.44 1.58,-5.15 1.04,-1.71 2.5,-3.09 4.33,-4.17 1.86,-1.07 3.85,-1.61 6.03,-1.61 4.17,0 7.08,1.2 8.66,3.6 1.55,2.43 3.29,6.48 5.21,12.13zm176.97 35.67c0,7.55 -1.17,14.47 -3.51,20.82 -2.37,6.35 -5.75,11.82 -10.2,16.36 -4.42,4.58 -9.76,8.06 -15.92,10.49 -6.16,2.43 -13.11,3.66 -20.82,3.66 -7.68,0 -14.56,-1.23 -20.66,-3.69 -6.1,-2.47 -11.41,-6 -15.89,-10.61 -4.45,-4.58 -7.87,-10.02 -10.17,-16.27 -2.31,-6.29 -3.48,-13.2 -3.48,-20.79 0,-7.64 1.17,-14.66 3.51,-21.01 2.37,-6.35 5.72,-11.78 10.11,-16.3 4.39,-4.49 9.7,-7.96 15.92,-10.39 6.22,-2.43 13.11,-3.66 20.66,-3.66 7.64,0 14.6,1.23 20.82,3.7 6.22,2.46 11.56,6 16.02,10.58 4.45,4.55 7.83,9.98 10.14,16.3 2.31,6.29 3.48,13.24 3.48,20.82zm-25.4 0c0,-10.3 -2.27,-18.29 -6.79,-24.04 -4.55,-5.72 -10.61,-8.59 -18.26,-8.59 -4.96,0 -9.29,1.26 -13.05,3.82 -3.76,2.56 -6.66,6.35 -8.69,11.34 -2.05,4.99 -3.06,10.84 -3.06,17.47 0,6.6 1.01,12.38 3,17.31 2.02,4.93 4.86,8.72 8.59,11.34 3.73,2.62 8.15,3.92 13.2,3.92 7.64,0 13.71,-2.87 18.26,-8.65 4.52,-5.75 6.79,-13.74 6.79,-23.92zm45.3 35.98l0 -109.56c0,-5.05 1.14,-8.88 3.38,-11.47 2.24,-2.59 5.28,-3.89 9.1,-3.89 3.79,0 6.89,1.29 9.23,3.85 2.34,2.56 3.51,6.38 3.51,11.5l0 109.56c0,5.12 -1.2,8.94 -3.57,11.5 -2.37,2.56 -5.43,3.85 -9.16,3.85 -3.69,0 -6.7,-1.33 -9,-3.98 -2.31,-2.65 -3.48,-6.44 -3.48,-11.37zm51.37 0l0 -109.56c0,-5.05 1.14,-8.88 3.38,-11.47 2.24,-2.59 5.28,-3.89 9.1,-3.89 3.79,0 6.89,1.29 9.23,3.85 2.34,2.56 3.51,6.38 3.51,11.5l0 109.56c0,5.12 -1.2,8.94 -3.57,11.5 -2.37,2.56 -5.43,3.85 -9.16,3.85 -3.69,0 -6.7,-1.33 -9,-3.98 -2.31,-2.65 -3.48,-6.44 -3.48,-11.37zm121.85 -29.76l-49.44 0c0.06,5.75 1.23,10.8 3.48,15.19 2.24,4.39 5.24,7.68 8.97,9.89 3.73,2.24 7.87,3.35 12.35,3.35 3.03,0 5.78,-0.35 8.28,-1.07 2.53,-0.69 4.93,-1.8 7.27,-3.32 2.37,-1.52 4.52,-3.13 6.48,-4.87 1.99,-1.74 4.55,-4.07 7.71,-7.04 1.3,-1.11 3.13,-1.67 5.53,-1.67 2.59,0 4.71,0.73 6.32,2.15 1.58,1.39 2.4,3.41 2.4,6 0,2.27 -0.92,4.93 -2.69,7.99 -1.8,3.03 -4.49,5.97 -8.12,8.75 -3.6,2.81 -8.12,5.15 -13.59,6.98 -5.47,1.86 -11.75,2.78 -18.83,2.78 -16.24,0 -28.84,-4.64 -37.85,-13.9 -9,-9.26 -13.49,-21.8 -13.49,-37.66 0,-7.46 1.1,-14.41 3.32,-20.79 2.21,-6.38 5.47,-11.85 9.7,-16.43 4.26,-4.55 9.51,-8.06 15.73,-10.49 6.22,-2.43 13.14,-3.66 20.72,-3.66 9.89,0 18.35,2.08 25.4,6.25 7.08,4.17 12.35,9.54 15.89,16.17 3.51,6.6 5.27,13.33 5.27,20.19 0,6.35 -1.83,10.49 -5.46,12.38 -3.63,1.86 -8.75,2.81 -15.35,2.81zm-49.44 -14.41l45.81 0c-0.6,-8.62 -2.94,-15.07 -6.98,-19.36 -4.04,-4.26 -9.35,-6.41 -15.95,-6.41 -6.32,0 -11.47,2.18 -15.51,6.51 -4.04,4.36 -6.51,10.77 -7.36,19.27zm168.35 -64.1l0 38.89 59.33 0 0 -38.89c0,-5.53 1.26,-9.7 3.76,-12.48 2.5,-2.78 5.78,-4.17 9.86,-4.17 4.11,0 7.46,1.36 10.02,4.11 2.56,2.75 3.85,6.92 3.85,12.54l0 106.87c0,5.62 -1.29,9.79 -3.89,12.57 -2.59,2.78 -5.94,4.17 -9.98,4.17 -4.14,0 -7.46,-1.39 -9.92,-4.2 -2.47,-2.81 -3.7,-6.98 -3.7,-12.54l0 -45.62 -59.33 0 0 45.62c0,5.62 -1.29,9.79 -3.89,12.57 -2.59,2.78 -5.94,4.17 -9.98,4.17 -4.14,0 -7.46,-1.39 -9.92,-4.2 -2.46,-2.81 -3.7,-6.98 -3.7,-12.54l0 -106.87c0,-5.56 1.23,-9.7 3.66,-12.48 2.43,-2.78 5.75,-4.17 9.95,-4.17 4.1,0 7.46,1.36 10.01,4.11 2.56,2.75 3.85,6.95 3.85,12.54zm209.23 72.28c0,7.55 -1.17,14.47 -3.51,20.82 -2.37,6.35 -5.75,11.82 -10.2,16.36 -4.42,4.58 -9.76,8.06 -15.92,10.49 -6.16,2.43 -13.11,3.66 -20.82,3.66 -7.68,0 -14.56,-1.23 -20.66,-3.69 -6.1,-2.47 -11.41,-6 -15.89,-10.61 -4.45,-4.58 -7.87,-10.02 -10.17,-16.27 -2.31,-6.29 -3.48,-13.2 -3.48,-20.79 0,-7.64 1.17,-14.66 3.51,-21.01 2.37,-6.35 5.72,-11.78 10.11,-16.3 4.39,-4.49 9.7,-7.96 15.92,-10.39 6.22,-2.43 13.11,-3.66 20.66,-3.66 7.64,0 14.6,1.23 20.82,3.7 6.22,2.46 11.56,6 16.02,10.58 4.45,4.55 7.83,9.98 10.14,16.3 2.31,6.29 3.48,13.24 3.48,20.82zm-25.4 0c0,-10.3 -2.27,-18.29 -6.79,-24.04 -4.55,-5.72 -10.61,-8.59 -18.26,-8.59 -4.96,0 -9.29,1.26 -13.05,3.82 -3.76,2.56 -6.66,6.35 -8.69,11.34 -2.05,4.99 -3.06,10.84 -3.06,17.47 0,6.6 1.01,12.38 3,17.31 2.02,4.93 4.86,8.72 8.59,11.34 3.73,2.62 8.15,3.92 13.2,3.92 7.64,0 13.71,-2.87 18.26,-8.65 4.52,-5.75 6.79,-13.74 6.79,-23.92zm68.62 -74.49l0 38.6c4.74,-4.96 9.6,-8.75 14.53,-11.37 4.93,-2.62 11.06,-3.95 18.32,-3.95 8.4,0 15.76,1.99 22.08,5.97 6.32,3.98 11.21,9.76 14.69,17.31 3.51,7.55 5.24,16.52 5.24,26.88 0,7.65 -0.98,14.66 -2.91,21.04 -1.96,6.38 -4.77,11.94 -8.47,16.62 -3.7,4.71 -8.21,8.31 -13.49,10.87 -5.28,2.56 -11.09,3.85 -17.44,3.85 -3.89,0 -7.55,-0.47 -10.96,-1.39 -3.41,-0.92 -6.35,-2.15 -8.75,-3.67 -2.4,-1.48 -4.46,-3.06 -6.16,-4.67 -1.67,-1.58 -3.92,-3.98 -6.7,-7.2l0 2.5c0,4.74 -1.14,8.34 -3.41,10.77 -2.31,2.43 -5.21,3.66 -8.72,3.66 -3.57,0 -6.41,-1.23 -8.56,-3.66 -2.11,-2.43 -3.19,-6.03 -3.19,-10.77l0 -110.28c0,-5.12 1.04,-9.01 3.09,-11.63 2.08,-2.62 4.96,-3.92 8.66,-3.92 3.89,0 6.89,1.26 8.97,3.76 2.12,2.5 3.16,6.07 3.16,10.68zm1.2 75.06c0,10.05 2.31,17.75 6.89,23.16 4.61,5.4 10.61,8.09 18.07,8.09 6.35,0 11.85,-2.75 16.43,-8.28 4.58,-5.53 6.89,-13.43 6.89,-23.73 0,-6.63 -0.95,-12.38 -2.88,-17.19 -1.9,-4.8 -4.61,-8.53 -8.12,-11.15 -3.54,-2.62 -7.61,-3.92 -12.32,-3.92 -4.8,0 -9.07,1.29 -12.83,3.92 -3.76,2.62 -6.73,6.41 -8.88,11.37 -2.18,4.96 -3.25,10.87 -3.25,17.72zm114.77 -75.06l0 38.6c4.74,-4.96 9.6,-8.75 14.53,-11.37 4.93,-2.62 11.06,-3.95 18.32,-3.95 8.4,0 15.76,1.99 22.08,5.97 6.32,3.98 11.21,9.76 14.69,17.31 3.51,7.55 5.24,16.52 5.24,26.88 0,7.65 -0.98,14.66 -2.91,21.04 -1.96,6.38 -4.77,11.94 -8.47,16.62 -3.7,4.71 -8.21,8.31 -13.49,10.87 -5.28,2.56 -11.09,3.85 -17.44,3.85 -3.89,0 -7.55,-0.47 -10.96,-1.39 -3.41,-0.92 -6.35,-2.15 -8.75,-3.67 -2.4,-1.48 -4.46,-3.06 -6.16,-4.67 -1.67,-1.58 -3.92,-3.98 -6.7,-7.2l0 2.5c0,4.74 -1.14,8.34 -3.41,10.77 -2.31,2.43 -5.21,3.66 -8.72,3.66 -3.57,0 -6.41,-1.23 -8.56,-3.66 -2.11,-2.43 -3.19,-6.03 -3.19,-10.77l0 -110.28c0,-5.12 1.04,-9.01 3.09,-11.63 2.08,-2.62 4.96,-3.92 8.66,-3.92 3.89,0 6.89,1.26 8.97,3.76 2.12,2.5 3.16,6.07 3.16,10.68zm1.2 75.06c0,10.05 2.31,17.75 6.89,23.16 4.61,5.4 10.61,8.09 18.07,8.09 6.35,0 11.85,-2.75 16.43,-8.28 4.58,-5.53 6.89,-13.43 6.89,-23.73 0,-6.63 -0.95,-12.38 -2.88,-17.19 -1.9,-4.8 -4.61,-8.53 -8.12,-11.15 -3.54,-2.62 -7.61,-3.92 -12.32,-3.92 -4.8,0 -9.07,1.29 -12.83,3.92 -3.76,2.62 -6.73,6.41 -8.88,11.37 -2.18,4.96 -3.25,10.87 -3.25,17.72zm114.74 53.96l2.34 -5.65 -31.09 -78.31c-1.93,-4.52 -2.87,-7.8 -2.87,-9.82 0,-2.15 0.57,-4.17 1.67,-6.03 1.1,-1.83 2.62,-3.32 4.58,-4.42 1.93,-1.1 3.95,-1.67 6.03,-1.67 3.66,0 6.41,1.17 8.24,3.48 1.86,2.31 3.48,5.62 4.9,9.95l21.39 62.2 20.25 -57.84c1.61,-4.71 3.06,-8.37 4.36,-11.03 1.3,-2.65 2.65,-4.46 4.11,-5.37 1.45,-0.92 3.51,-1.39 6.16,-1.39 1.9,0 3.73,0.51 5.5,1.52 1.74,1.04 3.1,2.4 4.07,4.14 0.95,1.71 1.42,3.54 1.42,5.47 -0.25,1.17 -0.63,2.84 -1.2,4.99 -0.57,2.15 -1.23,4.36 -2.02,6.57l-32.95 86.28c-2.84,7.61 -5.62,13.55 -8.31,17.88 -2.72,4.33 -6.32,7.64 -10.81,9.95 -4.45,2.31 -10.49,3.48 -18.07,3.48 -7.39,0 -12.95,-0.79 -16.65,-2.4 -3.7,-1.61 -5.56,-4.55 -5.56,-8.78 0,-2.91 0.89,-5.15 2.65,-6.7 1.74,-1.58 4.36,-2.37 7.8,-2.37 1.36,0 2.68,0.19 3.98,0.54 1.61,0.38 3,0.57 4.17,0.57 2.91,0 5.18,-0.44 6.82,-1.3 1.67,-0.85 3.16,-2.37 4.49,-4.49 1.33,-2.15 2.88,-5.28 4.58,-9.41zm148.07 -76.92l-46.28 51.75 49.5 0c4.01,0 7.05,0.95 9.07,2.81 2.05,1.9 3.06,4.33 3.06,7.27 0,2.84 -1.01,5.15 -3,6.95 -2.02,1.8 -5.05,2.68 -9.13,2.68l-68.49 0c-4.8,0 -8.4,-1.04 -10.77,-3.16 -2.37,-2.08 -3.57,-4.96 -3.57,-8.59 0,-2.15 0.82,-4.33 2.5,-6.54 1.67,-2.18 5.12,-6.19 10.36,-12.07 5.56,-6.16 10.61,-11.75 15.13,-16.77 4.55,-4.99 8.75,-9.67 12.64,-14.03 3.89,-4.33 7.11,-8.03 9.67,-11.06 2.56,-3.03 4.61,-5.62 6.16,-7.77l-37.56 0c-5.18,0 -9.1,-0.47 -11.75,-1.39 -2.65,-0.92 -3.98,-3.35 -3.98,-7.3 0,-2.88 0.98,-5.21 3,-6.92 1.99,-1.74 4.87,-2.59 8.56,-2.59l58.03 0c5.37,0 9.48,0.79 12.35,2.37 2.88,1.55 4.3,4.39 4.3,8.44 0,1.36 -0.28,2.78 -0.82,4.2 -0.57,1.45 -1.17,2.65 -1.86,3.57 -0.66,0.92 -1.61,2.05 -2.78,3.38 -1.17,1.33 -2.62,2.91 -4.33,4.77zm95.69 59.49l0 -3.25c-3.03,3.82 -6.19,7.05 -9.54,9.63 -3.32,2.59 -6.95,4.52 -10.9,5.78 -3.95,1.26 -8.44,1.9 -13.49,1.9 -6.13,0 -11.59,-1.26 -16.43,-3.79 -4.83,-2.53 -8.59,-6 -11.25,-10.46 -3.13,-5.37 -4.71,-13.08 -4.71,-23.16l0 -50.04c0,-5.09 1.14,-8.84 3.41,-11.34 2.27,-2.5 5.31,-3.76 9.07,-3.76 3.79,0 6.89,1.26 9.22,3.79 2.34,2.53 3.51,6.29 3.51,11.31l0 40.44c0,5.84 0.51,10.77 1.49,14.75 0.98,3.98 2.75,7.11 5.31,9.35 2.56,2.24 6.03,3.38 10.42,3.38 4.27,0 8.28,-1.26 12.04,-3.79 3.76,-2.53 6.51,-5.84 8.24,-9.92 1.42,-3.57 2.12,-11.41 2.12,-23.5l0 -30.71c0,-5.02 1.17,-8.78 3.51,-11.31 2.37,-2.53 5.43,-3.79 9.19,-3.79 3.76,0 6.79,1.26 9.07,3.76 2.31,2.5 3.44,6.26 3.44,11.34l0 73.2c0,4.8 -1.11,8.4 -3.29,10.84 -2.21,2.4 -5.02,3.6 -8.5,3.6 -3.44,0 -6.32,-1.26 -8.56,-3.76 -2.24,-2.5 -3.38,-6 -3.38,-10.49zm139.57 -17c0,3.13 -0.95,6.51 -2.84,10.08 -1.86,3.57 -4.74,6.98 -8.59,10.2 -3.85,3.22 -8.72,5.84 -14.6,7.8 -5.84,1.99 -12.45,2.97 -19.81,2.97 -15.61,0 -27.8,-4.55 -36.55,-13.65 -8.78,-9.1 -13.17,-21.29 -13.17,-36.61 0,-10.36 2.02,-19.52 6.03,-27.48 4.01,-7.96 9.82,-14.12 17.41,-18.45 7.61,-4.36 16.68,-6.54 27.23,-6.54 6.54,0 12.54,0.95 18.01,2.88 5.43,1.93 10.08,4.39 13.87,7.42 3.79,3.03 6.7,6.25 8.69,9.67 2.02,3.44 3.03,6.63 3.03,9.6 0,3.03 -1.14,5.59 -3.38,7.71 -2.27,2.08 -4.99,3.13 -8.21,3.13 -2.09,0 -3.82,-0.54 -5.21,-1.61 -1.39,-1.07 -2.94,-2.81 -4.67,-5.21 -3.1,-4.67 -6.32,-8.21 -9.67,-10.55 -3.38,-2.34 -7.64,-3.51 -12.83,-3.51 -7.46,0 -13.49,2.91 -18.04,8.75 -4.58,5.81 -6.86,13.77 -6.86,23.88 0,4.74 0.6,9.1 1.77,13.08 1.17,3.98 2.84,7.39 5.09,10.17 2.21,2.81 4.9,4.93 8.06,6.38 3.13,1.45 6.6,2.18 10.36,2.18 5.05,0 9.38,-1.17 12.98,-3.51 3.63,-2.34 6.82,-5.94 9.6,-10.74 1.52,-2.84 3.19,-5.05 4.99,-6.63 1.77,-1.61 3.98,-2.43 6.57,-2.43 3.1,0 5.65,1.2 7.68,3.54 2.02,2.34 3.06,4.83 3.06,7.49zm41.92 -93.67l0 37.44c3.22,-3.7 6.35,-6.63 9.41,-8.78 3.03,-2.15 6.41,-3.79 10.11,-4.86 3.73,-1.07 7.71,-1.61 11.97,-1.61 6.41,0 12.1,1.36 17.09,4.07 4.96,2.72 8.84,6.67 11.69,11.85 1.8,3 3,6.38 3.63,10.14 0.6,3.73 0.92,8.02 0.92,12.89l0 48.43c0,5.05 -1.17,8.88 -3.48,11.47 -2.31,2.59 -5.4,3.89 -9.22,3.89 -8.34,0 -12.51,-5.12 -12.51,-15.35l0 -42.68c0,-8.09 -1.2,-14.31 -3.6,-18.64 -2.4,-4.36 -6.98,-6.54 -13.71,-6.54 -4.49,0 -8.56,1.3 -12.16,3.85 -3.6,2.56 -6.32,6.03 -8.09,10.49 -1.36,3.76 -2.05,10.46 -2.05,20.09l0 33.42c0,4.99 -1.14,8.78 -3.38,11.4 -2.24,2.62 -5.37,3.95 -9.35,3.95 -8.31,0 -12.48,-5.12 -12.48,-15.35l0 -109.56c0,-5.12 1.1,-8.94 3.28,-11.5 2.18,-2.56 5.25,-3.85 9.19,-3.85 3.98,0 7.11,1.29 9.35,3.89 2.24,2.59 3.38,6.41 3.38,11.47zm91.23 24.45l2.78 0 0 -15.2c0,-4.07 0.09,-7.26 0.32,-9.57 0.22,-2.34 0.82,-4.33 1.8,-5.97 0.98,-1.74 2.4,-3.16 4.27,-4.23 1.83,-1.07 3.89,-1.61 6.19,-1.61 3.19,0 6.07,1.2 8.65,3.6 1.74,1.61 2.81,3.57 3.29,5.91 0.47,2.31 0.69,5.59 0.69,9.86l0 17.22 9.26 0c3.57,0 6.32,0.85 8.18,2.53 1.9,1.71 2.84,3.89 2.84,6.51 0,3.41 -1.36,5.78 -4.04,7.14 -2.69,1.36 -6.51,2.02 -11.53,2.02l-4.71 0 0 46.44c0,3.95 0.13,7.01 0.41,9.13 0.28,2.12 1.01,3.85 2.21,5.18 1.23,1.33 3.19,1.99 5.91,1.99 1.45,0 3.48,-0.25 6,-0.79 2.53,-0.51 4.52,-0.79 5.91,-0.79 2.05,0 3.89,0.82 5.53,2.47 1.64,1.64 2.43,3.66 2.43,6.07 0,4.07 -2.21,7.17 -6.63,9.32 -4.45,2.18 -10.84,3.25 -19.18,3.25 -7.9,0 -13.87,-1.33 -17.91,-3.98 -4.07,-2.65 -6.73,-6.32 -7.99,-11.03 -1.26,-4.67 -1.9,-10.93 -1.9,-18.76l0 -48.49 -3.32 0c-3.66,0 -6.44,-0.85 -8.34,-2.59 -1.93,-1.71 -2.88,-3.92 -2.88,-6.57 0,-2.62 1.01,-4.8 3,-6.51 2.02,-1.67 4.93,-2.53 8.75,-2.53z"/>
 </g>
</svg>
