<?xml version="1.0" encoding="UTF-8"?>
<!DOCTYPE svg PUBLIC "-//W3C//DTD SVG 1.1//EN" "http://www.w3.org/Graphics/SVG/1.1/DTD/svg11.dtd">
<!-- Creator: CorelDRAW -->
<svg xmlns="http://www.w3.org/2000/svg" xml:space="preserve" width="54.0733mm" height="34.5307mm" version="1.1" style="shape-rendering:geometricPrecision; text-rendering:geometricPrecision; image-rendering:optimizeQuality; fill-rule:evenodd; clip-rule:evenodd"
viewBox="0 0 340.79 217.63"
 xmlns:xlink="http://www.w3.org/1999/xlink"
 xmlns:xodm="http://www.corel.com/coreldraw/odm/2003">
 <defs>
  <style type="text/css">
   <![CDATA[
    .str0 {stroke:#2B2A29;stroke-width:1.26;stroke-miterlimit:22.9256}
    .fil0 {fill:#2B2A29}
    .fil1 {fill:#1F1D1D}
   ]]>
  </style>
 </defs>
 <g id="Layer_x0020_1">
  <metadata id="CorelCorpID_0Corel-Layer"/>
  <g id="_3086252208">
   <path class="fil0 str0" d="M299.51 51.27c4.44,22.48 34.96,67.88 34.62,71.17 -4.87,46.7 -36.23,56.28 -75.7,55.26 -15.19,-0.39 -69.53,-4.4 -52.42,-28.97 3.1,-4.45 23.75,-30.99 22.67,-33.41 -2.35,-5.27 -8.03,-8.58 -6.43,-10.21 3.46,-3.52 8.06,1.21 13.51,-3.97 0.25,-0.24 -3.82,-0.42 -6.12,-0.76 -12.29,-1.83 -21.71,15.11 -32.23,5.01 -3.44,-3.3 -10.63,-9.96 -10.63,-9.33 0,11.05 1.46,5.39 -5.56,1.54 -2.12,-1.16 -11.99,-18.5 -8.55,-18.67 4.18,-0.22 9.86,-1.55 0.8,-1.12 -0.67,0.03 -1.59,-0.15 -2.41,-0.65 -3.52,-2.16 0.11,-9.7 4.01,-11.4 11.73,-5.09 12.14,-6.57 20.84,-15.19 5.78,-5.73 1.5,-11.47 -2.55,-1.58 -0.69,1.67 -5.47,-12.92 2.03,-15.52 -0.53,-5.15 4.29,-18.59 16.56,-24.89 8.84,-4.54 14.56,-4.4 15.37,-3.36 0.66,0.85 -2.2,1.45 -7.33,7.71 -6.05,7.39 11.2,-14.72 37.97,-12.07 15.82,1.56 16.67,5.09 28.81,13.77 2.47,1.76 17.73,18.03 17.4,19.72 -0.26,1.32 -24.6,44.99 -39.88,40.95 -14.93,-3.95 -10.67,-50.34 -12.28,-47.55 -3.76,6.49 -8.3,72.97 27.7,46.27 16.55,-12.28 19.73,-23.09 19.8,-22.73z"/>
   <path class="fil1 str0" d="M1.13 215.72c58.86,-54.6 112,-39.27 183.41,-24.95 30,6.02 74.82,13.27 105.63,7.19 8.86,-1.75 14.65,-4.1 21.87,-7.52 5.48,-2.6 12.7,-8.13 16.67,-12.81 9.62,-11.33 14.36,-34.14 9.59,-46.19 -0.79,9.76 -0.44,16.13 -4.82,24.33 -11.23,21.05 -30.35,28.75 -56.51,29.57 -77.83,2.44 -175.16,-43.97 -247.66,1.82 -7.49,4.73 -26.52,21.92 -28.18,28.56z"/>
  </g>
 </g>
</svg>
